<svg xmlns="http://www.w3.org/2000/svg" width="64" height="64" fill="none"><path fill="#000" d="M25.972 38.69c-.54-2.724-2.093-5.038-4.378-6.51l-4.505-2.904c-3.309-2.133-4.367-6.62-2.364-10.01.983-1.665 2.54-2.823 4.374-3.271a6.766 6.766 0 0 1 5.326.903c1.57 1.013 2.677 2.591 3.11 4.457.175.743.9 1.206 1.622 1.024v-.01c.718-.182 1.165-.932.99-1.678-.602-2.57-2.13-4.764-4.306-6.165-2.21-1.422-4.828-1.87-7.36-1.248-2.54.62-4.68 2.226-6.045 4.53-2.776 4.681-1.323 10.885 3.237 13.825l4.505 2.904c1.65 1.063 2.777 2.734 3.168 4.703a7.407 7.407 0 0 1-1.127 5.624c-2.082 3.09-6.175 4.003-9.319 2.084-1.65-1.006-2.804-2.62-3.25-4.54-.176-.743-.9-1.205-1.622-1.024-.718.181-1.165.931-.99 1.678.619 2.66 2.216 4.892 4.495 6.285a9.348 9.348 0 0 0 4.914 1.39c3.082 0 6.106-1.504 7.975-4.273a10.214 10.214 0 0 0 1.553-7.774h-.003Z"/><path fill="#000" d="M30.46 49.33V26.297c0-.743-.588-1.351-1.307-1.351-.718 0-1.305.608-1.305 1.35V49.33c0 .742.587 1.35 1.305 1.35.719 0 1.306-.608 1.306-1.35Zm24.482-26.965c.725-.181 1.165-.931.99-1.678-.602-2.57-2.13-4.764-4.306-6.164a9.337 9.337 0 0 0-7.36-1.248c-2.54.619-4.68 2.225-6.044 4.529-2.777 4.682-1.323 10.885 3.236 13.825l4.505 2.905c1.65 1.063 2.777 2.733 3.169 4.703a7.407 7.407 0 0 1-1.127 5.624c-2.083 3.09-6.175 4.003-9.32 2.083-1.649-1.006-2.803-2.62-3.25-4.54-.175-.743-.9-1.205-1.622-1.023-.718.18-1.165.931-.99 1.678.626 2.659 2.217 4.891 4.495 6.285a9.348 9.348 0 0 0 4.914 1.39c3.082 0 6.106-1.504 7.975-4.273a10.214 10.214 0 0 0 1.553-7.775v-.01c-.54-2.724-2.092-5.038-4.377-6.51l-4.505-2.904c-3.31-2.133-4.368-6.62-2.364-10.011.982-1.664 2.539-2.823 4.374-3.27a6.766 6.766 0 0 1 5.326.902c1.57 1.013 2.677 2.592 3.11 4.458.175.743.9 1.205 1.622 1.024h-.004Z"/><path fill="#000" d="M54.939 24.953c-.719 0-1.306.608-1.306 1.35v23.034c0 .742.587 1.35 1.306 1.35.718 0 1.305-.607 1.305-1.35V26.303c0-.743-.587-1.351-1.305-1.351Z"/></svg>