<svg xmlns="http://www.w3.org/2000/svg" width="344" height="305" fill="none"><path fill="#EDDBC2" d="M136.439 171.033c-3.146-15.38-12.202-28.452-25.525-36.765l-26.266-16.404c-19.293-12.047-25.464-37.387-13.784-56.543C76.594 51.925 85.67 45.38 96.37 42.85c10.699-2.53 21.698-.743 31.054 5.1 9.156 5.722 15.607 14.637 18.132 25.179 1.021 4.196 5.249 6.807 9.456 5.783v-.06c4.187-1.025 6.792-5.261 5.77-9.478-3.506-14.517-12.421-26.906-25.104-34.817-12.882-8.031-28.149-10.561-42.914-7.048-14.806 3.494-27.288 12.57-35.242 25.581-16.188 26.444-7.713 61.482 18.873 78.087l26.266 16.405c9.617 6.003 16.188 15.441 18.472 26.564 2.284 11.124-.06 22.409-6.571 31.765-12.142 17.449-36.003 22.609-54.335 11.767-9.617-5.683-16.349-14.799-18.953-25.641-1.022-4.197-5.25-6.807-9.457-5.783-4.187 1.024-6.791 5.261-5.77 9.477 3.607 15.019 12.923 27.629 26.206 35.5 8.935 5.321 18.833 7.851 28.65 7.851 17.971 0 35.602-8.494 46.501-24.135 8.996-12.911 12.241-28.512 9.056-43.913h-.02Z"/><path fill="#EDDBC2" d="M162.605 231.129V101.037c0-4.196-3.426-7.63-7.613-7.63s-7.613 3.434-7.613 7.63v130.092c0 4.197 3.426 7.63 7.613 7.63s7.613-3.433 7.613-7.63M305.351 78.83a7.83 7.83 0 0 0 5.77-9.477c-3.506-14.517-12.422-26.906-25.104-34.817-12.882-8.072-28.149-10.562-42.915-7.048-14.805 3.494-27.287 12.57-35.241 25.58-16.188 26.445-7.713 61.483 18.873 78.088L253 147.561c9.616 6.003 16.188 15.44 18.472 26.564s-.06 22.408-6.572 31.765c-12.141 17.449-36.002 22.609-54.334 11.766-9.617-5.682-16.349-14.798-18.953-25.64-1.022-4.197-5.25-6.807-9.457-5.783-4.187 1.024-6.792 5.26-5.77 9.477 3.646 15.019 12.923 27.629 26.206 35.5 8.935 5.321 18.833 7.851 28.65 7.851 17.971 0 35.602-8.494 46.501-24.135 8.996-12.911 12.241-28.513 9.056-43.913v-.06c-3.146-15.381-12.202-28.452-25.525-36.765l-26.266-16.405c-19.293-12.047-25.464-37.387-13.784-56.542 5.73-9.397 14.806-15.943 25.505-18.473s21.698-.743 31.054 5.1c9.156 5.723 15.607 14.638 18.132 25.18 1.021 4.196 5.249 6.806 9.456 5.782z"/><path fill="#EDDBC2" d="M305.332 93.448c-4.187 0-7.613 3.433-7.613 7.63V231.17c0 4.196 3.426 7.63 7.613 7.63s7.613-3.434 7.613-7.63V101.078c0-4.197-3.426-7.63-7.613-7.63M117.465 275.685c-.441.18-.882.321-1.363.461q-.69.181-1.442.302a9.5 9.5 0 0 1-1.503.1q-1.683 0-3.005-.422c-.882-.301-1.623-.702-2.244-1.204a5.4 5.4 0 0 1-1.402-1.848 5.7 5.7 0 0 1-.481-2.349c0-.843.16-1.586.461-2.269a5.1 5.1 0 0 1 1.362-1.787c.601-.502 1.342-.883 2.224-1.164.881-.281 1.863-.422 2.985-.422s.922.02 1.402.08c.481.061.942.141 1.383.261.441.101.861.241 1.262.382.401.16.741.321 1.042.522l1.603-2.651a12.2 12.2 0 0 0-3.266-1.285q-1.743-.421-3.847-.421c-1.402 0-3.045.221-4.307.682-1.262.442-2.344 1.065-3.226 1.848a7.8 7.8 0 0 0-2.003 2.771 8.55 8.55 0 0 0-.702 3.433c0 1.225.221 2.43.682 3.534a7.9 7.9 0 0 0 2.023 2.851c.902.803 2.004 1.426 3.346 1.908 1.342.462 2.885.682 4.668.682s2.705-.16 3.927-.502c1.242-.341 2.324-.823 3.266-1.425l-1.603-2.651q-.571.331-1.202.603zm-53.894-3.996c0 .783-.1 1.466-.32 2.088-.221.603-.541 1.125-.962 1.526-.421.422-.942.743-1.583.964-.621.221-1.342.321-2.164.321-.821 0-1.563-.1-2.184-.321a4.4 4.4 0 0 1-1.582-.964 3.84 3.84 0 0 1-.942-1.526c-.22-.602-.32-1.305-.32-2.088v-9.497h-3.487v9.919c0 1.124.2 2.168.581 3.092a6.7 6.7 0 0 0 1.663 2.389c.721.663 1.623 1.165 2.665 1.526q1.593.543 3.606.542 2.015 0 3.606-.542c1.062-.361 1.944-.863 2.685-1.526a6.7 6.7 0 0 0 1.663-2.389c.38-.924.581-1.948.581-3.092v-9.919h-3.486v9.497zm-28.228-3.213-6.251-6.284h-3.486v17.247h3.486v-12.408l6.25 6.043 6.271-6.043v12.408H45.1v-17.247h-3.486l-6.27 6.284Zm62.948-6.284h-3.506v17.247h3.506zm34.701 17.247h3.486v-6.786h10.118v-2.892h-10.118v-4.517h11.901v-3.052h-15.387zm-43.898-9.557c-.52-.422-1.182-.763-1.963-.984s-1.683-.341-2.685-.341-1.082.02-1.663.08l-1.683.181q-.81.09-1.563.18c-.5.061-.921.081-1.302.081-.942 0-1.643-.161-2.124-.482-.46-.321-.7-.763-.7-1.265s.06-.522.2-.803.4-.522.76-.723c.362-.221.862-.402 1.484-.542.62-.141 1.422-.201 2.384-.201.961 0 1.342.04 1.983.12a27 27 0 0 1 1.903.302c.602.14 1.203.281 1.743.482.561.18 1.082.381 1.563.582l1.523-2.831a19 19 0 0 0-1.903-.723 22 22 0 0 0-2.144-.562 21 21 0 0 0-2.264-.362c-.781-.08-1.563-.14-2.324-.14-.762 0-2.024.08-2.845.241-.822.14-1.563.361-2.204.622a6.6 6.6 0 0 0-1.623.944 5.6 5.6 0 0 0-1.102 1.184c-.28.422-.48.864-.62 1.326a5.5 5.5 0 0 0-.181 1.405c0 .803.16 1.486.48 2.088a4.4 4.4 0 0 0 1.303 1.486 5.9 5.9 0 0 0 1.883.904 8.2 8.2 0 0 0 2.224.301c.761 0 .962-.02 1.483-.08.52-.061 1.061-.141 1.602-.201.541-.08 1.082-.141 1.603-.201s1.022-.1 1.503-.1q1.623 0 2.404.542c.521.361.781.863.781 1.486 0 .622-.1.743-.32 1.084-.2.321-.541.622-1.002.863s-1.042.422-1.783.563c-.721.14-1.603.2-2.645.2-1.041 0-1.663-.06-2.424-.16a14 14 0 0 1-2.164-.442 17 17 0 0 1-2.003-.723 21 21 0 0 1-1.903-.964l-1.864 2.831a19 19 0 0 0 2.124 1.045c.761.301 1.583.582 2.424.803a22 22 0 0 0 2.665.502c.922.12 1.863.18 2.845.18 1.462 0 2.805-.14 4.007-.401q1.803-.422 3.065-1.205c.862-.542 1.503-1.185 1.964-1.968.46-.783.7-1.666.7-2.65s-.14-1.406-.4-2.008a4.1 4.1 0 0 0-1.202-1.526zm79.278-5.482c-.862-.783-1.903-1.385-3.105-1.807-1.203-.422-2.545-.643-4.007-.643-1.463 0-2.805.221-4.027.643-1.203.422-2.244 1.024-3.106 1.807-.861.763-1.523 1.707-2.003 2.791s-.722 2.269-.722 3.574q0 1.958.722 3.614a8.3 8.3 0 0 0 2.003 2.811c.862.783 1.903 1.406 3.106 1.848 1.202.441 2.544.642 4.027.642 1.482 0 2.804-.221 4.007-.642 1.202-.442 2.243-1.065 3.105-1.848a8.3 8.3 0 0 0 2.023-2.811q.722-1.656.722-3.614c0-1.305-.241-2.49-.722-3.574a8 8 0 0 0-2.023-2.791m-1.242 8.775a5.1 5.1 0 0 1-1.343 1.827c-.561.502-1.242.883-2.023 1.164-.761.281-1.603.402-2.524.402a7.7 7.7 0 0 1-2.525-.402c-.761-.281-1.442-.662-2.023-1.164-.561-.502-1.002-1.125-1.343-1.827-.32-.723-.481-1.506-.481-2.41 0-.903.161-1.687.481-2.389a4.95 4.95 0 0 1 1.343-1.787c.581-.502 1.242-.864 2.023-1.125s1.623-.381 2.525-.381 1.743.12 2.524.381a6.2 6.2 0 0 1 2.023 1.125c.561.482 1.002 1.084 1.343 1.787.32.702.481 1.506.481 2.389q0 1.326-.481 2.41m125.12-1.506a5.7 5.7 0 0 0 .722-1.586c.16-.583.24-1.185.24-1.828 0-.943-.16-1.807-.481-2.55a4.73 4.73 0 0 0-1.422-1.907c-.642-.522-1.443-.924-2.405-1.185-.961-.281-2.123-.421-3.446-.421h-8.755v17.247h3.486v-4.919h5.39l3.245 4.899h4.268l-3.747-5.521a6 6 0 0 0 1.703-.944 5.7 5.7 0 0 0 1.202-1.305zm-2.965-2.068a2.7 2.7 0 0 1-.741 1.024c-.321.281-.742.502-1.242.642-.501.161-1.062.241-1.723.241h-5.35v-6.264h5.35c1.322 0 2.324.261 2.985.803.661.522.982 1.265.982 2.229 0 .963-.081.943-.261 1.345zm-19.854-5.201c-.862-.783-1.904-1.385-3.106-1.807s-2.544-.643-4.007-.643-2.805.221-4.027.643c-1.202.422-2.244 1.024-3.105 1.807-.862.763-1.523 1.707-2.004 2.791s-.721 2.269-.721 3.574q0 1.958.721 3.614a8.3 8.3 0 0 0 2.004 2.811c.861.783 1.903 1.406 3.105 1.848 1.202.441 2.545.642 4.027.642s2.805-.221 4.007-.642c1.202-.442 2.244-1.065 3.106-1.848a8.3 8.3 0 0 0 2.023-2.811q.721-1.656.721-3.614c0-1.305-.24-2.49-.721-3.574a8 8 0 0 0-2.023-2.791m-1.263 8.775a5.1 5.1 0 0 1-1.342 1.827c-.561.502-1.242.883-2.024 1.164-.761.281-1.602.402-2.524.402a7.7 7.7 0 0 1-2.524-.402c-.762-.281-1.443-.662-2.024-1.164-.561-.502-1.002-1.125-1.342-1.827-.321-.723-.481-1.506-.481-2.41 0-.903.16-1.687.481-2.389a4.94 4.94 0 0 1 1.342-1.787c.581-.502 1.242-.864 2.024-1.125.781-.261 1.622-.381 2.524-.381s1.743.12 2.524.381a6.2 6.2 0 0 1 2.024 1.125c.561.482 1.002 1.084 1.342 1.787.321.702.481 1.506.481 2.389q0 1.326-.481 2.41m33.358-1.606h9.877v-2.872h-9.877v-3.453h11.159v-3.052H298.02v17.247h14.885v-3.072h-11.379zm-88.135-7.089c-.881-.742-2.003-1.305-3.365-1.706q-2.044-.603-4.809-.603h-6.311v17.248h6.331c1.844 0 3.446-.201 4.809-.642 1.362-.442 2.484-1.044 3.366-1.827a7.6 7.6 0 0 0 1.983-2.751c.441-1.064.641-2.229.641-3.474s-.22-2.51-.661-3.554a6.8 6.8 0 0 0-2.004-2.691zm-1.422 8.594a4.6 4.6 0 0 1-1.182 1.787c-.521.502-1.182.884-1.963 1.145s-1.703.401-2.745.401h-3.687v-11.184h3.687c1.042 0 1.963.121 2.745.382.781.261 1.442.622 1.963 1.104a4.35 4.35 0 0 1 1.182 1.727 6.4 6.4 0 0 1 .401 2.289c0 .843-.141 1.647-.401 2.349m26.186-4.598-6.27-6.284h-3.487v17.247h3.487v-12.408l6.27 6.043 6.251-6.043v12.408h3.486v-17.247h-3.486zm-46.541-4.076c-.861-.783-1.903-1.385-3.105-1.807s-2.545-.643-4.007-.643c-1.463 0-2.805.221-4.027.643-1.202.422-2.244 1.024-3.106 1.807-.861.763-1.522 1.707-2.003 2.791s-.721 2.269-.721 3.574q0 1.958.721 3.614a8.3 8.3 0 0 0 2.003 2.811c.862.783 1.904 1.406 3.106 1.848 1.202.441 2.544.642 4.027.642 1.482 0 2.805-.221 4.007-.642 1.202-.442 2.244-1.065 3.105-1.848a8.3 8.3 0 0 0 2.024-2.811q.721-1.656.721-3.614c0-1.305-.24-2.49-.721-3.574a8 8 0 0 0-2.024-2.791m-1.242 8.775a5.1 5.1 0 0 1-1.342 1.827c-.561.502-1.243.883-2.024 1.164-.761.281-1.603.402-2.524.402a7.8 7.8 0 0 1-2.525-.402c-.761-.281-1.442-.662-2.023-1.164-.561-.502-1.002-1.125-1.343-1.827-.32-.723-.48-1.506-.48-2.41 0-.903.16-1.687.48-2.389a4.95 4.95 0 0 1 1.343-1.787c.581-.502 1.242-.864 2.023-1.125s1.623-.381 2.525-.381 1.743.12 2.524.381a6.2 6.2 0 0 1 2.024 1.125c.561.482 1.001 1.084 1.342 1.787.321.702.481 1.506.481 2.389q0 1.326-.481 2.41"/></svg>