<svg xmlns="http://www.w3.org/2000/svg" width="1080" height="1080" fill="none"><path fill="#fff" d="M441.317 654.907c-9.422-45.994-36.546-85.084-76.452-109.942l-78.673-49.057c-57.789-36.027-76.272-111.804-41.286-169.087 17.163-28.101 44.347-47.676 76.392-55.242 32.045-7.565 64.99-2.221 93.014 15.252 27.425 17.113 46.748 43.773 54.309 75.296 3.06 12.55 15.722 20.356 28.324 17.293v-.18c12.542-3.062 20.343-15.732 17.283-28.341-10.502-43.413-37.206-80.461-75.192-104.118-38.586-24.018-84.313-31.584-128.54-21.076-44.347 10.448-81.733 37.588-105.556 76.497-48.488 79.08-23.104 183.858 56.528 233.516l78.673 49.056c28.804 17.954 48.487 46.175 55.328 79.44 6.841 33.265-.18 67.01-19.683 94.991-36.365 52.18-107.837 67.611-162.745 35.187-28.805-16.993-48.968-44.253-56.769-76.678-3.06-12.549-15.722-20.355-28.324-17.293-12.542 3.063-20.343 15.732-17.283 28.342 10.802 44.913 38.706 82.622 78.492 106.159 26.764 15.912 56.409 23.478 85.814 23.478 53.828 0 106.636-25.399 139.281-72.174 26.944-38.609 36.666-85.264 27.125-131.319h-.06Z"/><path fill="#fff" d="M519.691 834.622V445.59c0-12.55-10.262-22.818-22.803-22.818-12.542 0-22.804 10.268-22.804 22.818v389.032c0 12.549 10.262 22.817 22.804 22.817 12.541 0 22.803-10.268 22.803-22.817ZM947.256 379.18c12.662-3.062 20.343-15.732 17.282-28.341-10.501-43.413-37.205-80.461-75.191-104.119-38.586-24.138-84.313-31.583-128.54-21.075-44.347 10.448-81.733 37.588-105.557 76.497-48.487 79.08-23.103 183.858 56.529 233.515l78.672 49.057c28.805 17.954 48.488 46.175 55.329 79.44 6.841 33.265-.18 67.01-19.683 94.991-36.366 52.18-107.837 67.611-162.746 35.187-28.804-16.993-48.967-44.253-56.768-76.678-3.061-12.549-15.723-20.355-28.325-17.293-12.542 3.063-20.343 15.732-17.282 28.342 10.921 44.913 38.706 82.622 78.492 106.159 26.764 15.912 56.408 23.478 85.813 23.478 53.828 0 106.637-25.399 139.282-72.174 26.944-38.609 36.666-85.264 27.124-131.319v-.18c-9.421-45.995-36.546-85.084-76.452-109.943l-78.672-49.057c-57.789-36.027-76.272-111.803-41.287-169.087 17.163-28.101 44.347-47.675 76.392-55.241 32.045-7.566 64.99-2.222 93.015 15.251 27.424 17.113 46.747 43.773 54.308 75.297 3.061 12.549 15.723 20.355 28.325 17.293h-.06Z"/><path fill="#fff" d="M947.196 422.892c-12.542 0-22.803 10.268-22.803 22.818v389.032c0 12.549 10.261 22.817 22.803 22.817 12.542 0 22.804-10.268 22.804-22.817V445.71c0-12.55-10.262-22.818-22.804-22.818Z"/></svg>